<?xml version="1.0" standalone="no"?><!DOCTYPE svg PUBLIC "-//W3C//DTD SVG 1.1//EN" "http://www.w3.org/Graphics/SVG/1.1/DTD/svg11.dtd"><svg t="1533283462460" class="icon" style="" viewBox="0 0 1024 1024" version="1.1" xmlns="http://www.w3.org/2000/svg" p-id="6636" xmlns:xlink="http://www.w3.org/1999/xlink" width="32" height="32"><defs><style type="text/css"></style></defs><path d="M995.361241 383.346875l-299.374368-29.695323c-22.903639-2.136663-28.051893-5.700839-35.174104-24.330128L532.769534 45.232181c-11.728112-24.102954-30.849612-24.102954-42.519396 0l-136.48244 284.090266c-9.31618 15.781428-13.642718 19.339464-36.163642 21.477151L27.600103 383.346875c-26.629497 2.62785-32.601512 19.944238-13.205766 38.461987l227.543389 209.189369c10.685363 10.024308 10.847046 14.297634 7.888668 28.107152l-58.407248 306.986743c-4.925173 26.355251 10.027377 36.934191 33.207309 23.508413L484.329289 839.636039c18.246573-11.44568 35.069727-11.777231 52.982701-0.708128l260.969687 150.727886c23.171746 13.423731 38.185694 2.849908 33.30964-23.50739L786.99768 721.128995c26.737968-9.042957 52.649104-20.111037 68.100004-32.657794l-6.30152 1.260713c-92.378967 22.081924-219.324194 35.234479-337.121064 35.234479-43.453674 0-85.641519-1.538029-126.074393-4.443196l-0.218988 0.108471a1495.344045 1495.344045 0 0 1-102.131075-10.466376c-12.107759-1.916653 1.043772-9.749038 1.043772-9.749038l312.960805-222.394113s8.215102-5.095042 0.10847-6.194072c-128.645962-20.104897-271.158746-25.200962-405.118737-25.200962l-9.257851 0.052188c90.563622-20.596084 204.530256-32.872688 328.410681-32.872688 73.039503 0 142.620231 4.275373 206.064193 12.056594-0.049119 0.052189 35.836183 4.984524 52.984748 7.779173 13.316284 1.970888 0.932232 9.698896 0.932232 9.698897L457.980177 660.586107s-7.237845 4.27435 0.600681 5.422499c96.376001 13.643742 215.216643 18.518772 322.057997 19.890003l-4.824889-26.299993c-2.408863-15.284101 0-20.545942 11.508102-31.501458l220.970694-206.615754c19.448958-18.35709 13.696953-35.506678-12.931521-38.134529z m0 0" fill="#f4ea2a" p-id="6637"></path></svg>