<?xml version="1.0" standalone="no"?><!DOCTYPE svg PUBLIC "-//W3C//DTD SVG 1.1//EN" "http://www.w3.org/Graphics/SVG/1.1/DTD/svg11.dtd"><svg t="1533262948183" class="icon" style="" viewBox="0 0 1024 1024" version="1.1" xmlns="http://www.w3.org/2000/svg" p-id="3531" xmlns:xlink="http://www.w3.org/1999/xlink" width="32" height="32"><defs><style type="text/css"></style></defs><path d="M886.784 900.58752H146.32448l-39.01952-24.93952-2.37056-7.20896c-1.17248-3.54304-11.09504-35.50208-0.768-68.67456l1.04448-3.36896 2.09408-2.90304c24.10496-33.03936 84.39296-66.12992 148.20352-101.18144 58.45504-32.10752 146.75456-80.59904 147.30752-106.42944l0.06656-24.39168C347.09504 507.60704 316.50304 434.19648 316.50304 353.68448c0-124.544 23.76704-251.88352 200.0896-251.904 176.32256 0.02048 200.05888 127.36 200.05888 251.904 0 80.53248-30.63296 153.94304-86.37952 207.76448l0.09216 24.87296c0.53248 25.344 88.85248 73.87648 147.28192 105.984 63.79008 35.072 124.07808 68.14208 148.16256 101.18144l2.11456 2.90304 1.06496 3.34848c10.28608 33.19296 0.384 65.152-0.78848 68.69504l-2.36544 7.20896-39.05024 24.94464z m-727.97696-42.66496h715.52l14.95552-9.53344c1.408-7.46496 2.88256-20.01408-0.128-32.49664-20.62848-24.91392-77.19936-56.01792-132.02944-86.13888-90.32704-49.61792-168.38656-92.48256-169.41056-142.93504l-0.14848-44.01152 7.0656-6.3744c51.15392-46.18752 79.38048-111.08352 79.38048-182.70208 0-132.50048-25.74848-209.21344-157.39392-209.23904-131.65056 0.02048-157.41952 76.73856-157.41952 209.23904 0 71.63904 28.18048 136.51456 79.36 182.70208l7.06048 6.3744-0.08704 43.5456c-1.06496 50.9184-79.08352 93.77792-169.43104 143.40096-54.82496 30.12096-111.46752 61.22496-132.0704 86.13888-3.01056 12.46208-1.55648 25.05216-0.10752 32.49664l14.88384 9.53344z" fill="#ffffff" p-id="3532" data-spm-anchor-id="a313x.7781069.0.i0"></path></svg>