<?xml version="1.0" standalone="no"?><!DOCTYPE svg PUBLIC "-//W3C//DTD SVG 1.1//EN" "http://www.w3.org/Graphics/SVG/1.1/DTD/svg11.dtd"><svg t="1533368452140" class="icon" style="" viewBox="0 0 1024 1024" version="1.1" xmlns="http://www.w3.org/2000/svg" p-id="36961" xmlns:xlink="http://www.w3.org/1999/xlink" width="32" height="32"><defs><style type="text/css"></style></defs><path d="M889.018 563.2c2.327-4.655 104.727-134.982 114.037-176.873 2.327-18.618-9.31-37.236-13.964-44.218-34.91-48.873-100.073-104.727-153.6-134.982-30.255-16.29-62.836-25.6-95.418-34.909-34.91-9.309-69.818-13.963-102.4-13.963-6.982 0-16.291 4.654-20.946 9.309-6.982 4.654-9.309 11.636-9.309 20.945 0 6.982 4.655 13.964 9.31 18.618 4.654 6.982 11.636 9.31 20.945 9.31 25.6 0 55.854 4.654 88.436 6.981 27.927 6.982 55.855 18.618 83.782 32.582s128 86.11 130.327 123.345c-4.654 23.273-109.382 165.237-109.382 165.237-6.981 9.309-4.654 16.29-2.327 25.6 18.618 55.854 16.291 144.29 6.982 186.182-6.982 27.927-13.964 53.527-25.6 79.127-11.636 27.927-32.582 65.164-51.2 83.782-11.636-2.328-114.036-48.873-125.673-51.2-6.982 0-13.963 0-18.618 2.327-32.582 16.29-148.945 67.49-188.51 69.818-25.6 2.327-53.526 2.327-81.454 0-27.927-2.327-69.818-11.636-86.109-25.6-13.963-11.636-4.654-141.963-13.963-158.254s-69.819-69.819-83.782-90.764c-18.618-23.273-32.582-46.545-44.218-72.145C102.4 567.855 93.09 539.927 88.436 512c-4.654-30.255-6.981-88.436-4.654-93.09 0 0 158.254-67.492 165.236-76.8 13.964-11.637 44.218-83.783 60.51-109.383s39.563-51.2 60.508-69.818c25.6-20.945 51.2-37.236 83.782-53.527 25.6-13.964 53.527-25.6 83.782-30.255 6.982-2.327 13.964-4.654 18.618-13.963 2.327-4.655 4.655-11.637 2.327-20.946 0-4.654-6.981-13.963-11.636-16.29-4.654-4.655-11.636-4.655-20.945-4.655-37.237 6.982-69.819 18.618-102.4 34.909-30.255 16.29-60.51 34.909-88.437 60.509-25.6 20.945-51.2 48.873-72.145 79.127-18.618 30.255-37.237 76.8-51.2 102.4-34.91 16.291-137.31 55.855-137.31 55.855s-27.927 11.636-37.236 23.272C25.6 393.31 23.273 416.582 23.273 425.891c0 32.582 2.327 65.164 6.982 97.745 9.309 32.582 16.29 62.837 30.254 93.091 13.964 30.255 30.255 58.182 51.2 86.11 18.618 23.272 74.473 79.127 74.473 79.127s-2.327 88.436 6.982 139.636c2.327 16.29 9.309 30.255 13.963 34.91 25.6 25.6 97.746 41.89 130.328 44.217 83.781 2.328 141.963-6.982 190.836-23.272 27.927-9.31 74.473-37.237 86.109-44.219h4.655l134.981 51.2c6.982 2.328 25.6 0 32.582-4.654 6.982-4.655 20.946-25.6 27.927-32.582 27.928-30.255 69.819-132.655 79.128-179.2 6.982-32.582 9.309-62.836 9.309-95.418-2.327-32.582-4.655-65.164-13.964-95.418-2.327-6.982 0-11.637 0-13.964z" p-id="36962" fill="#1296db"></path><path d="M593.455 535.273a58.182 58.182 0 1 0 116.363 0 58.182 58.182 0 1 0-116.363 0zM318.836 642.327a29.498 29.498 0 0 0 41.891 0l81.455-81.454c9.309-9.31 9.309-25.6-2.327-34.91l-90.764-67.49c-13.964-9.31-30.255-6.982-39.564 6.982-9.309 13.963-6.982 30.254 6.982 39.563l55.855 41.891-53.528 53.527a29.498 29.498 0 0 0 0 41.891z" p-id="36963" fill="#1296db"></path></svg>