<?xml version="1.0" standalone="no"?><!DOCTYPE svg PUBLIC "-//W3C//DTD SVG 1.1//EN" "http://www.w3.org/Graphics/SVG/1.1/DTD/svg11.dtd"><svg t="1533195130146" class="icon" style="" viewBox="0 0 1024 1024" version="1.1" xmlns="http://www.w3.org/2000/svg" p-id="5339" xmlns:xlink="http://www.w3.org/1999/xlink" width="32" height="32"><defs><style type="text/css"></style></defs><path d="M958.507 548.053a64 64 0 0 0-57.6-36.053h-104.32V341.333a21.333 21.333 0 0 0-42.667 0V512h-42.667V277.333a21.333 21.333 0 0 0-42.666 0V512H634.88L525.653 402.773A64 64 0 0 0 480.213 384H379.947L292.48 279.04A64 64 0 0 0 243.413 256h-22.826v-64a21.333 21.333 0 1 0-42.667 0v64a64 64 0 0 0-64 64v192A64 64 0 0 0 64 542.293a64 64 0 0 0-2.347 64S118.4 707.84 156.8 775.68a85.333 85.333 0 0 0 82.987 77.653 82.987 82.987 0 0 0 61.866-27.52 82.987 82.987 0 0 0 123.734 0 83.2 83.2 0 0 0 123.733 0 82.987 82.987 0 0 0 123.733 0 82.773 82.773 0 0 0 144.427-49.28c42.667-51.413 133.547-160.64 133.76-161.066a64 64 0 0 0 7.467-67.414zM156.587 320a21.333 21.333 0 0 1 21.333-21.333h65.28a21.333 21.333 0 0 1 16.427 7.68l64 77.653h-167.04v-64z m258.986 106.667h64a21.333 21.333 0 0 1 15.147 6.186L574.507 512h-417.92v-85.333h258.986zM917.333 588.8s-96.64 116.693-137.813 165.547a21.333 21.333 0 0 0-4.907 15.146 40.533 40.533 0 1 1-81.066 0 21.333 21.333 0 0 0-42.667 0 40.533 40.533 0 1 1-81.067 0 21.333 21.333 0 0 0-42.666 0 40.533 40.533 0 1 1-81.067 0 21.333 21.333 0 0 0-42.667 0 40.533 40.533 0 1 1-81.066 0 21.333 21.333 0 0 0-42.667 0 40.533 40.533 0 0 1-40.533 40.534 42.667 42.667 0 0 1-40.534-42.667v-1.28a36.267 36.267 0 0 0-2.133-8.107v-1.066C158.293 689.493 99.84 584.96 99.84 584.96a21.333 21.333 0 0 1 19.2-30.293h781.867a21.333 21.333 0 0 1 19.2 11.946 21.333 21.333 0 0 1-2.774 22.187z" fill="#CE4141" p-id="5340"></path><path d="M199.253 618.667a21.333 21.333 0 1 0 42.667 0 21.333 21.333 0 1 0-42.667 0zM284.587 618.667a21.333 21.333 0 1 0 42.666 0 21.333 21.333 0 1 0-42.666 0zM369.92 618.667a21.333 21.333 0 1 0 42.667 0 21.333 21.333 0 1 0-42.667 0zM455.253 618.667a21.333 21.333 0 1 0 42.667 0 21.333 21.333 0 1 0-42.667 0zM540.587 618.667a21.333 21.333 0 1 0 42.666 0 21.333 21.333 0 1 0-42.666 0zM625.92 618.667a21.333 21.333 0 1 0 42.667 0 21.333 21.333 0 1 0-42.667 0zM711.253 618.667a21.333 21.333 0 1 0 42.667 0 21.333 21.333 0 1 0-42.667 0zM796.587 618.667a21.333 21.333 0 1 0 42.666 0 21.333 21.333 0 1 0-42.666 0z" fill="#CE4141" p-id="5341"></path></svg>