<?xml version="1.0" standalone="no"?><!DOCTYPE svg PUBLIC "-//W3C//DTD SVG 1.1//EN" "http://www.w3.org/Graphics/SVG/1.1/DTD/svg11.dtd"><svg t="1533290440710" class="icon" style="" viewBox="0 0 1024 1024" version="1.1" xmlns="http://www.w3.org/2000/svg" p-id="20200" xmlns:xlink="http://www.w3.org/1999/xlink" width="32" height="32"><defs><style type="text/css"></style></defs><path d="M852.531 311.91v587.131c0 19.753-16.164 36.076-36.07 36.076H150.323c-19.753 0-36.075-16.159-36.075-36.076V163.538c0-19.753 16.158-36.076 36.075-36.076H662.37a41.759 41.759 0 0 0 41.785-41.784 38.318 38.318 0 0 0-38.36-38.359H158.649c-64.804 0-117.688 52.885-117.688 117.688v732.406c0 64.804 52.884 117.688 117.688 117.688h649.646c64.8 0 117.684-52.884 117.684-117.688V312.561c0-20.404-16.646-37.054-37.049-37.054a36.439 36.439 0 0 0-36.398 36.403z" p-id="20201" fill="#1296db"></path><path d="M453.274 419.313H218.552c-16.486 0-30.034-13.548-30.034-30.034v-14.203c0-16.487 13.548-30.034 30.034-30.034h234.722c16.486 0 30.034 13.547 30.034 30.034v14.203c0.163 16.486-13.384 30.034-30.034 30.034zM673.469 642.61H218.552c-16.486 0-30.034-13.547-30.034-30.034V598.38c0-16.487 13.548-30.034 30.034-30.034H673.47c16.487 0 30.034 13.547 30.034 30.034v14.197c0 16.487-13.547 30.034-30.034 30.034zM966.666 69.934L590.428 448.292c-11.75 11.75-30.853 11.75-42.603 0.164l-10.123-10.123c-11.75-11.75-11.75-30.848-0.163-42.603L913.94 17.367c11.75-11.75 30.848-11.75 42.599-0.159l10.122 10.117a30.157 30.157 0 0 1 0.005 42.61z" p-id="20202" fill="#1296db"></path></svg>