<?xml version="1.0" standalone="no"?><!DOCTYPE svg PUBLIC "-//W3C//DTD SVG 1.1//EN" "http://www.w3.org/Graphics/SVG/1.1/DTD/svg11.dtd"><svg t="1533290345164" class="icon" style="" viewBox="0 0 1024 1024" version="1.1" xmlns="http://www.w3.org/2000/svg" p-id="16642" xmlns:xlink="http://www.w3.org/1999/xlink" width="32" height="32"><defs><style type="text/css"></style></defs><path d="M663.6849329 409.26155915H280.20644978c-13.16286515 0-23.95672525 13.03211678-23.95672525 29.22420148s10.79386011 29.22290693 23.95672525 29.22290694h383.47848312c13.29490805 0 23.95931433-13.03082224 23.95931433-29.22290694s-10.66570082-29.22420148-23.95931433-29.22420148z m0 145.85821614H280.20644978c-13.16286515 0-23.95672525 13.03729493-23.95672525 29.22808509 0 16.18690655 10.79386011 29.22420148 23.95672525 29.22420149h383.47848312c13.29490805 0 23.95931433-13.03729493 23.95931433-29.22420149 0-16.19079017-10.66570082-29.2280851-23.95931433-29.22808509z m0 0" fill="#1296db" p-id="16643"></path><path d="M934.70558183 146.50135893c-13.29490805 0-31.29934633 13.03082224-31.29934633 29.22290694v671.38508928c0 32.2521265-21.45567731 58.31506551-47.91862866 58.31506551H199.0440783c-26.45777319 0-47.91733413-26.19368738-47.91733412-58.31506551V175.72426587c0-32.2521265 21.45438277-58.31506551 47.91733412-58.31506552h545.79675338c26.45777319 0 47.91862866 26.19498192 47.91862867 58.31506552v612.92891908c0 16.19726285 18.00443828 29.2280851 31.29934632 29.2280851s31.29934633-13.03600039 31.29934634-29.2280851V117.26809568c0-32.2521265-21.45567731-58.31506551-47.91862866-58.31506551H160.40599451c-39.75656485 0-71.87535392 39.23098231-71.87535392 87.54315061v729.70533294c0 48.3121683 32.12008359 87.54315061 71.87535392 87.54315062h718.91017829c39.62452195 0 86.55671245-39.23616048 86.55671245-87.54315062V175.59351751c0.1320429-16.06133634-18.00443828-29.09215858-31.16730342-29.09215858z m0 0" fill="#1296db" p-id="16644"></path><path d="M663.6849329 701.11521248H280.20644978c-13.16286515 0-23.95672525 13.03600039-23.95672525 29.22290695 0 16.1920847 10.79386011 29.22290693 23.95672525 29.22290694h383.47848312c13.29490805 0 23.95931433-13.03082224 23.95931433-29.22290694 0-16.18690655-10.66570082-29.22290693-23.95931433-29.22290695zM272.4443983 336.99007653c3.94575265 0 7.24294163-1.44599925 9.87085432-4.21242755 2.50493155-2.75995559 3.82018243-6.97756128 3.82018244-12.50006155v-84.64985756l54.89489541 84.11780234c1.57933669 2.24084575 3.15996791 4.61243986 4.73801006 6.71606456 1.58451485 2.23825667 3.29201083 4.08038463 5.13284427 5.79435329 1.84212797 1.57933669 3.81759337 2.89717665 5.92639619 3.5548021 2.10362469 0.78966835 4.47521881 1.18838613 7.10442604 1.18838613 10.53365792 0 15.79725053-6.32123038 15.79725054-18.96110206v-113.60608965c0-5.53285657-1.18968067-9.74010595-3.69202317-12.50006155-2.36512142-2.76642829-5.79046969-4.21242754-10.00289722-4.21242753-4.08038463 0-7.37239547 1.44599925-9.73881141 4.21242753-2.37159411 2.75995559-3.55998025 6.97238313-3.55998026 12.50006155v85.96510847L296.52410469 205.22032039c-1.57804215-2.49716432-3.16126245-4.86875843-4.6072617-7.24035255-1.44599925-2.2395512-2.89717665-4.21242754-4.34317591-5.65972132-1.44470471-1.44599925-3.02404141-2.63438539-4.87005298-3.42275919-1.84083342-0.78837381-4.08038463-1.31525088-6.71477001-1.31525088-3.29201083 0-6.45327328 0.92041671-9.35174447 2.76125013-2.89588211 1.84601157-4.99950681 4.34835405-6.18271479 7.24164709-1.05245962 2.63438539-1.58451485 6.45197875-1.58451485 11.19516697v111.36653843c0 5.39563552 1.18838613 9.61194667 3.6933177 12.5052397 2.36641597 2.89588211 5.65842678 4.34188137 9.86826524 4.34188137l0.01294538-0.00388361z m234.323078-124.27567408c4.60726171 0 8.16724195-1.05116507 10.40161502-3.15996792 2.2395512-2.10362469 3.42793733-4.87005298 3.42793734-8.16206381s-1.18838613-6.05326096-3.42793734-8.16076926c-2.23566759-2.10880285-5.78917515-3.16126245-10.40161502-3.16126245h-77.27228396c-4.08167917 0-7.49926021 0.65762544-10.13235106 1.84083342-2.63697445 1.18320798-4.60855625 3.15996791-5.92898528 5.79046968-1.18320798 2.63438539-1.83824435 6.05714457-1.83824435 10.26957211v108.61046645c0 6.32123038 1.44470471 10.92590302 4.20983846 13.68844768 2.76254467 2.76642829 7.37368999 4.21242754 13.68974223 4.21242754h79.51442425c4.60596717 0 8.02872637-1.05245962 10.40032048-3.16126246 2.37677227-2.10362469 3.55998025-4.86875843 3.55998024-8.29281217 0-3.55998025-1.18838613-6.45068421-3.55998024-8.55948704-2.36512142-2.10362469-5.79046969-3.15996791-10.40032048-3.15996793h-68.19239254v-41.07181574h60.68665965c4.47521881 0 7.89927253-1.05245962 10.00678083-3.15996792 2.10362469-2.10880285 3.29201083-4.73930462 3.29201083-8.03131543 0-3.29201083-1.05634323-5.92121805-3.29201083-7.89797801-2.2395512-1.97287632-5.53156204-3.02404141-10.00678083-3.0240414h-60.68665965v-35.41338895h65.95025225v0.00388361z m207.07563647 1.05763776c1.44599925-5.92639621 2.10362469-10.27086665 2.10362469-12.90525203 0-3.81759337-1.31525088-6.97885582-3.94445811-9.47602015-2.63438539-2.50363701-5.92639621-3.8188879-9.74398957-3.81888789-3.8124152 0-6.7108864 0.92041671-8.68764635 2.89847119-1.97158178 1.97675995-3.42405373 4.21242754-4.21242753 6.71477-0.78837381 2.49845886-1.70879052 5.92639621-2.62920723 10.40161502l-18.9623966 84.38447725-21.32492896-78.9875472c-1.71396867-6.45197875-3.15996791-11.18998882-4.21242753-13.9564171-1.05245962-2.76125013-2.89717665-5.39563552-5.65842678-7.76205147-2.76642829-2.37159411-6.5788435-3.55998025-11.45407463-3.55998025-4.87005298 0-8.68764635 1.18838613-11.58482299 3.42405373-2.76125013 2.2395512-4.87005298 5.0059795-6.05326096 8.16594741-1.18838613 3.16126245-2.63438539 7.76205147-4.21242753 13.82049059l-21.19288605 78.85550429-18.95851299-84.38447725c-1.31525088-6.45197875-3.02404141-11.45278009-4.87005298-14.87683381-1.84083342-3.4227592-5.39563552-5.1276661-10.79644918-5.12766609-3.81759337 0-7.10960418 1.31525088-9.74398958 3.81370974-2.63438539 2.50234249-3.94445811 5.65842678-3.9444581 9.47602016 0 2.89717665 0.65762544 7.24164709 2.10362469 12.90525202l24.09006269 97.2806675c0.65762544 2.90235481 1.5832203 6.05973365 2.50363703 9.35174448 0.92041671 3.4227592 2.10362469 6.32123038 3.55480208 8.82227831 1.44599925 2.49975341 3.29201083 4.34447043 5.65842679 5.65842679 2.37159411 1.31654542 5.26877076 1.97287632 8.95043761 1.97287632 4.47521881 0 8.0300209-1.18320798 10.79644919-3.42534827 2.63438539-2.23437307 4.60726171-4.87005298 5.65842678-7.63389218 1.05634323-2.8984712 2.50363701-7.49926021 4.3431759-14.08328186l23.69652307-86.62273391 23.30168889 86.62273391c1.84083342 6.70959186 3.42405373 11.5783503 4.4752188 14.34607312 1.05245962 2.76642829 2.89717665 5.26747623 5.66360494 7.50443837 2.62920723 2.23825667 6.31605223 3.29201083 10.79644918 3.29201082 4.73801008 0 8.42485507-1.18838613 10.92331393-3.42534827a18.44328675 18.44328675 0 0 0 5.53156204-8.03002089c1.05245962-3.02404141 2.49845886-7.89927253 4.08038463-14.47811603l23.95931433-97.15509728-0.00388361-0.00258909z m0 0" fill="#1296db" p-id="16645"></path></svg>