<?xml version="1.0" standalone="no"?><!DOCTYPE svg PUBLIC "-//W3C//DTD SVG 1.1//EN" "http://www.w3.org/Graphics/SVG/1.1/DTD/svg11.dtd"><svg t="1533204882119" class="icon" style="" viewBox="0 0 1024 1024" version="1.1" xmlns="http://www.w3.org/2000/svg" p-id="5668" xmlns:xlink="http://www.w3.org/1999/xlink" width="32" height="32"><defs><style type="text/css"></style></defs><path d="M367.7184 265.472l106.24 0 0 71.5264-106.24 0 0-71.5264Z" fill="#8a8a8a" p-id="5669"></path><path d="M596.4288 119.6544h-35.3792a5.12 5.12 0 0 0-4.4544 2.56l-17.7152 30.72a5.12 5.12 0 0 0 0 5.12l17.7152 30.72a5.12 5.12 0 0 0 4.4544 2.56h35.3792a5.12 5.12 0 0 0 4.4544-2.56l17.7152-30.72a5.12 5.12 0 0 0 0-5.12l-17.7152-30.72a5.12 5.12 0 0 0-4.4544-2.56zM849.92 299.7248l-60.416-24.1152a5.12 5.12 0 0 1-1.28-8.7552l51.2-40.2432a5.12 5.12 0 0 1 8.2432 3.2768l9.3184 64.3584a5.12 5.12 0 0 1-7.0656 5.4784zM961.1264 141.1072l-60.416-24.1152a5.12 5.12 0 0 1-1.28-8.7552l51.2-40.2432a5.12 5.12 0 0 1 8.2432 3.2768l9.3184 64.3584a5.12 5.12 0 0 1-7.0656 5.4784zM195.4816 199.2192L135.1168 175.104a5.12 5.12 0 0 1-1.28-8.7552l51.2-40.2432a5.12 5.12 0 0 1 8.2432 3.2768l9.3184 64.3584a5.12 5.12 0 0 1-7.1168 5.4784z" fill="#8a8a8a" p-id="5670"></path><path d="M819.9168 569.6v18.3808A16.0256 16.0256 0 0 1 803.84 604.16H333.312a16.0256 16.0256 0 0 1-15.872-16.1792v-18.3808a16.0256 16.0256 0 0 1 16.0256-16.0256H803.84a16.0256 16.0256 0 0 1 16.0768 16.0256z m0 117.504v18.3808a16.0256 16.0256 0 0 1-16.0256 16.0256H333.312a16.0256 16.0256 0 0 1-15.872-16.0256v-18.3808a16.0256 16.0256 0 0 1 16.0256-16.0256H803.84a16.0256 16.0256 0 0 1 16.0768 16.0256z m-66.2528 117.4528v18.3808a16.0256 16.0256 0 0 1-16.0256 16.0256h-404.48a16.0256 16.0256 0 0 1-15.7184-16.0256v-18.3808a16.0256 16.0256 0 0 1 15.872-16.0768h404.48a16.0256 16.0256 0 0 1 15.872 16.0768z m0 9.5744" fill="#8a8a8a" p-id="5671"></path><path d="M895.488 426.496H241.664a30.72 30.72 0 0 0-30.72 30.72v359.3216L107.52 922.368a33.024 33.024 0 0 0-5.7344 39.168 34.4064 34.4064 0 0 0 30.72 17.3568H243.712a15.36 15.36 0 0 0 15.36-15.36v-19.7632a15.36 15.36 0 0 0-15.36-15.36h-71.68l89.344-93.4912V497.4592a20.48 20.48 0 0 1 20.48-20.48H855.04a20.48 20.48 0 0 1 20.48 20.48v410.4192a20.48 20.48 0 0 1-20.48 20.48H332.4416a15.36 15.36 0 0 0-15.36 15.36v19.7632a15.36 15.36 0 0 0 15.36 15.36h563.2a30.72 30.72 0 0 0 30.72-30.72V457.216a30.72 30.72 0 0 0-30.8736-30.72z" fill="#8a8a8a" p-id="5672"></path></svg>