<?xml version="1.0" standalone="no"?><!DOCTYPE svg PUBLIC "-//W3C//DTD SVG 1.1//EN" "http://www.w3.org/Graphics/SVG/1.1/DTD/svg11.dtd"><svg t="1533285302196" class="icon" style="" viewBox="0 0 1024 1024" version="1.1" xmlns="http://www.w3.org/2000/svg" p-id="8158" xmlns:xlink="http://www.w3.org/1999/xlink" width="32" height="32"><defs><style type="text/css"></style></defs><path d="M512.039385 0.196923C229.494154 0.196923 0 229.415385 0 512.157538c0 282.624 229.494154 511.645538 512.039385 511.645538C794.820923 1023.803077 1024 794.781538 1024 512.157538 1024 229.415385 794.820923 0.196923 512.039385 0.196923L512.039385 0.196923zM764.691692 651.342769c0 0-18.038154 49.506462-51.160615 94.011077 0 0 59.116308 20.243692 54.193231 72.743385 0 0 1.929846 58.604308-126.424615 54.587077 0 0-90.269538-7.049846-117.366154-45.449846l-11.815385 0-0.196923 0-11.854769 0c-27.057231 38.439385-117.326769 45.449846-117.326769 45.449846-128.433231 4.056615-126.385231-54.587077-126.385231-54.587077-5.001846-52.499692 54.153846-72.743385 54.153846-72.743385-33.083077-44.504615-51.160615-94.011077-51.160615-94.011077-80.265846 130.363077-72.231385-18.195692-72.231385-18.195692 15.044923-87.906462 78.257231-145.486769 78.257231-145.486769-9.019077-79.832615 24.064-94.011077 24.064-94.011077C296.329846 146.668308 507.588923 151.000615 512 151.118769c4.450462-0.118154 215.630769-4.450462 222.601846 242.530462 0 0 33.122462 14.139077 24.064 94.011077 0 0 63.172923 57.580308 78.217846 145.486769C836.923077 633.147077 844.918154 781.705846 764.691692 651.342769L764.691692 651.342769zM764.691692 651.342769M475.490462 398.769231c41.472 30.838154 86.764308 62.148923 127.763692 93.105231 14.966154 11.264 12.169846 24.694154 0.945231 32.964923-43.756308 33.476923-91.017846 70.813538-134.813538 104.251077-15.281231 10.594462-29.538462 10.791385-29.814154-15.163077 0-62.897231 0.512-133.12 0.512-196.017231C440.044308 382.700308 453.041231 382.109538 475.490462 398.769231z" p-id="8159" fill="#ea9518"></path></svg>