<?xml version="1.0" standalone="no"?><!DOCTYPE svg PUBLIC "-//W3C//DTD SVG 1.1//EN" "http://www.w3.org/Graphics/SVG/1.1/DTD/svg11.dtd"><svg t="1533296697545" class="icon" style="" viewBox="0 0 1024 1024" version="1.1" xmlns="http://www.w3.org/2000/svg" p-id="37377" xmlns:xlink="http://www.w3.org/1999/xlink" width="32" height="32"><defs><style type="text/css"></style></defs><path d="M507.114753 315.626349c-108.242357 0-195.916059 88.241219-195.916059 197.148235s87.673702 197.148235 195.916059 197.148235c108.145215 0 195.916059-88.338361 195.916058-197.148235 0-108.907017-87.678814-197.148235-195.916058-197.148235z m0 326.618794c-71.087891 0-128.71387-58.009437-128.71387-129.567702s57.625979-129.567702 128.71387-129.567701 128.71387 58.004324 128.713869 129.567701-57.625979 129.567702-128.713869 129.567702z" fill="#f4ea2a" p-id="37378"></path><path d="M511.276544 1.446913c-282.372922 0-511.276544 228.903621-511.276544 511.276543s228.903621 511.276544 511.276544 511.276544 511.276544-228.903621 511.276543-511.276544-228.903621-511.276544-511.276543-511.276543zM503.607396 777.49824c-207.573164 0-366.805131-158.57242-417.227224-233.735185a60.325519 60.325519 0 0 1 1.421349-69.099025c53.172761-72.979614 218.095235-226.715358 415.810987-226.715357 195.440572 0 370.026173 149.947185 429.646131 224.158975a60.887924 60.887924 0 0 1 1.421349 74.406075c-56.77726 76.394941-225.963781 230.984517-431.072592 230.984517z" fill="#f4ea2a" p-id="37379"></path></svg>