<?xml version="1.0" standalone="no"?><!DOCTYPE svg PUBLIC "-//W3C//DTD SVG 1.1//EN" "http://www.w3.org/Graphics/SVG/1.1/DTD/svg11.dtd"><svg t="1533347674344" class="icon" style="" viewBox="0 0 1024 1024" version="1.1" xmlns="http://www.w3.org/2000/svg" p-id="11160" xmlns:xlink="http://www.w3.org/1999/xlink" width="32" height="32"><defs><style type="text/css"></style></defs><path d="M906.08107519 779.6592185c0 96.20102258-78.04900693 174.24420409-174.2500295 174.24420408H228.45048604c-96.20102258 0-174.25002951-78.04318151-174.25002952-174.24420408V276.27283343C54.20628195 180.07763627 132.25528889 102.02862933 228.45048604 102.02862933h154.28048213c10.28769565 0 19.36370347 8.47016391 19.36370347 19.36370347 0 9.68185173-6.6584576 17.54617173-15.73446542 19.35787805-30.2514176 10.28769565-57.47944107 22.3870976-80.46655716 36.30403128-3.02921955 1.21168782-6.05261369 2.42337565-9.68185174 2.42337565H228.45048604c-53.24435911 0-96.80104107 43.56250738-96.80104107 96.80104107v503.38055965c0 53.24435911 43.56250738 96.80686649 96.80104107 96.80686648h503.38055965c53.25018453 0 96.80686649-43.5683328 96.80686648-96.80686648v-129.47583432c0-7.25847609 4.24090738-13.91693369 10.89353955-17.54617173 12.09357653-5.4525952 22.98129067-13.31108978 32.6631424-22.39292302 5.4525952-5.44676978 13.91693369-7.86432 21.17540978-4.83510045 7.26430151 3.02921955 12.71107129 9.67602631 12.71107129 17.54617173v156.70385779z" fill="#2c2c2c" p-id="11161"></path><path d="M988.29525902 302.21343858s0.25631858-14.7849216-10.0663296-22.04922311l-269.02382365-218.04555377s-16.31700765-12.74602382-33.89813191-3.05834667c0 0-16.57332622 7.64877938-16.57332622 27.78143857v94.8145721s-307.37840355 14.7849216-330.06259769 357.46538381c0 15.92670435 10.9576192 31.48058169 29.3076992 31.48058169 0 0 29.56401778 2.55153493 32.62236444-29.5698432 0 0 14.27228445-97.3602816 267.87039005-112.65201493v92.26303716s1.53208605 21.41425209 19.11903573 28.03775715c0 0 19.36952889 7.13614222 31.60874098-5.09724445l268.3830272-216.32705422c0.01165085-0.00582542 12.058624-10.13040925 10.71295147-25.04349013z" fill="#2c2c2c" p-id="11162"></path></svg>