<?xml version="1.0" standalone="no"?><!DOCTYPE svg PUBLIC "-//W3C//DTD SVG 1.1//EN" "http://www.w3.org/Graphics/SVG/1.1/DTD/svg11.dtd"><svg t="1533289380100" class="icon" style="" viewBox="0 0 1024 1024" version="1.1" xmlns="http://www.w3.org/2000/svg" p-id="9755" xmlns:xlink="http://www.w3.org/1999/xlink" width="32" height="32"><defs><style type="text/css"></style></defs><path d="M610.160385 958.249131c-29.695923 29.701043-51.844985 63.692634-97.115907 65.668949-44.508044 1.919995-66.406227-31.902637-97.279747-59.908964C279.649884 793.23196 80.641122 622.680083 97.828917 386.894456c36.940704-506.540763 761.35738-515.27546 826.580891-28.651446C954.044291 579.354756 742.035882 797.778508 610.160385 958.249131L610.160385 958.249131zM516.561908 264.173496c-84.285221 0-152.642163 68.356942-152.642163 152.642163 0 84.290341 68.356942 152.642163 152.642163 152.642163 84.280101 0 152.637043-68.351822 152.637043-152.642163C669.198951 332.525318 600.847129 264.173496 516.561908 264.173496L516.561908 264.173496zM517.247986 214.745144c-112.322268 0-203.406831 91.084563-203.406831 203.411951 0 112.317148 91.084563 203.401711 203.406831 203.401711 112.322268 0 203.406831-91.084563 203.406831-203.401711C720.654817 305.829707 629.570254 214.745144 517.247986 214.745144z" p-id="9756" fill="#e6402b"></path></svg>