<?xml version="1.0" standalone="no"?><!DOCTYPE svg PUBLIC "-//W3C//DTD SVG 1.1//EN" "http://www.w3.org/Graphics/SVG/1.1/DTD/svg11.dtd"><svg t="1532951987038" class="icon" style="" viewBox="0 0 5376 1024" version="1.1" xmlns="http://www.w3.org/2000/svg" p-id="3057" xmlns:xlink="http://www.w3.org/1999/xlink" width="168" height="32"><defs><style type="text/css"></style></defs><path d="M1433.792 451.392l-346.624 0 0 324.032c0 73.856 38.208 120.128 120.448 120.128l0-0.064 343.872 0L1551.488 566.08C1551.488 494.272 1517.952 451.392 1433.792 451.392zM1351.872 517.44l48.192 0c61.632 0 83.392 0.192 83.392 79.424l0 44.224-131.584 0L1351.872 517.44zM1286.784 832.512l-39.68 0c-62.08 0-92.096-6.848-92.096-78.4 0 0 0-20.608 0-49.728l131.84 0L1286.848 832.512zM1286.784 641.152l-131.904 0c-0.064-60.48-0.128-122.944-0.192-123.712l132.032 0L1286.72 641.152zM1351.872 832.512l0-128.128 131.584 0 0 126.72c0 0.512 0.064 0.896 0.064 1.344L1351.872 832.448zM846.848 192l0 68.928c68.48 1.536 111.68 32.896 121.856 88.896l1.344 7.424-123.264 71.616 0 71.488c0 0 90.048-53.888 124.224-71.68l0 115.2L971.2 556.8l-0.064-11.968-124.224 72.192 0 71.552c0 0 90.496-54.208 124.48-71.872l0 42.304c0 158.016-124.48 167.488-124.48 167.488l0 70.336c51.712-1.408 194.816-23.36 194.816-244.608L1041.728 368.448C1035.968 254.912 967.552 193.984 846.848 192zM1479.68 192l-68.224 0 0 76.672-183.296 0L1228.16 192l-68.224 0 0 76.672-72.704 0 0 68.672 72.704 0 0 63.488 68.224 0L1228.16 337.344l183.296 0 0 63.488 68.224 0L1479.68 337.344l72.512 0L1552.192 268.672 1479.68 268.672 1479.68 192zM432.192 260.992l279.296 0L711.488 192.448 95.36 192.448l0 68.544 266.368 0 0 177.92L64 438.912l0 68.224 289.536 0C345.92 544.064 291.776 749.568 64 827.136l0 69.312c139.648-28.224 268.544-146.56 331.904-285.568 71.808 156.352 218.752 259.712 346.432 285.568l0-70.336c-231.488-78.848-296.32-289.408-304.256-318.912l304.768 0L742.848 438.912 432.192 438.912 432.192 260.992zM1721.792 521.216l184.32 0 0 374.336 76.8 0L1982.912 521.216l184.384 0L2167.296 451.392l-445.504 0L1721.792 521.216zM2964.864 452.16c-71.296 0-96.832 73.408-96.832 73.408l-151.488 369.856 78.336 0c78.144-168.192 252.16-167.296 266.944-167.296l66.432 167.296 84.864 0-151.424-369.856C3061.696 525.632 3036.352 452.16 2964.864 452.16zM2867.84 714.624l64.192-152c0 0 8.768-23.488 32.896-23.488 24.896 0 32.896 23.488 32.896 23.488l38.656 99.904C3018.624 663.616 2930.24 669.12 2867.84 714.624zM3326.72 746.368 3326.72 452.288l-76.224 0 0 328.448c0 66.688 47.552 114.56 119.744 114.56l92.672 0 0-73.344c0 0-17.152 0.128-56.448 0.128C3355.392 822.144 3326.72 812.992 3326.72 746.368zM3589.12 746.368 3589.12 452.288l-76.16 0 0 328.448c0 66.688 47.488 114.56 119.68 114.56l92.672 0 0-73.344c0 0-17.088 0.128-56.448 0.128C3617.728 822.144 3589.12 812.992 3589.12 746.368zM2634.304 454.336c-25.408-10.048-49.152 8.384-53.824 12.032-33.344 25.6-69.504 48.256-134.976 48.256l-5.952 0c-65.6 0-101.696-22.656-135.04-48.256-4.672-3.648-28.352-22.08-53.824-12.032-23.808 9.344-27.584 31.488-27.584 49.152 0 33.92 0.064 229.504 0.064 391.68l76.16 0L2299.328 561.856c25.216 13.504 77.696 31.552 140.992 31.552l4.224 0c60.16 0 115.84-18.048 140.992-31.552l0 333.248 76.16 0c0.064-162.176 0.064-357.76 0.064-391.68C2661.888 485.824 2658.048 463.616 2634.304 454.336zM3844.16 821.44c-21.056 0-38.208 16.576-38.208 36.992s17.152 37.056 38.208 37.056c20.992 0 38.08-16.64 38.08-37.056S3865.216 821.44 3844.16 821.44zM4549.248 452.672c-54.848 0-102.08 15.936-140.288 47.36-45.76 37.76-68.992 96.384-68.992 174.016 0 70.784 19.52 126.016 57.664 163.968 38.4 38.144 89.344 57.472 151.616 57.472 38.592 0 74.88-8.832 107.712-26.048 32.768-17.28 58.112-41.92 75.456-73.344 17.024-31.168 25.6-74.176 25.6-127.744 0-66.752-19.648-119.872-58.432-158.016C4660.8 472.128 4610.24 452.672 4549.248 452.672zM4644.672 788.352c-25.6 24.192-57.728 36.48-95.424 36.48-38.784 0-70.208-11.904-96-36.224-26.24-25.024-39.616-63.424-39.616-114.56 0-51.008 13.376-89.344 39.616-114.176 25.408-24 57.728-36.096 96-36.096 37.632 0 69.632 12.16 95.232 36.224 26.432 24.896 39.808 62.528 39.808 111.808C4684.288 724.16 4670.976 763.456 4644.672 788.352zM5220.416 454.336c-25.472-10.048-49.152 8.384-53.824 12.032-33.408 25.6-69.504 48.256-134.976 48.256l-6.016 0c-65.536 0-101.632-22.656-134.976-48.256-4.736-3.648-28.416-22.08-53.888-12.032-23.744 9.344-27.52 31.488-27.52 49.152l0 391.68 76.16 0L4885.376 561.856c25.216 13.504 77.76 31.552 140.992 31.552l4.224 0c60.16 0 115.904-18.048 140.992-31.552l0 333.248 76.224 0c0-162.176 0.064-357.76 0.064-391.68C5248 485.824 5244.16 463.616 5220.416 454.336zM4206.976 788.352c-25.664 24.192-57.728 36.48-95.424 36.48-38.784 0-70.208-11.904-96-36.224-26.24-25.024-39.616-63.424-39.616-114.56 0-51.008 13.376-89.344 39.552-114.176 25.472-24 57.792-36.096 96.064-36.096 37.568 0 69.632 12.16 95.168 36.224 3.2 3.008 6.208 6.208 8.96 9.536l86.016 0c-9.536-22.528-22.656-42.432-39.808-59.264-38.72-38.208-89.344-57.6-150.336-57.6-54.848 0-102.08 15.936-140.352 47.36-45.76 37.76-68.928 96.384-68.928 174.016 0 70.784 19.456 126.016 57.664 163.968 38.336 38.144 89.344 57.472 151.616 57.472 38.592 0 74.816-8.832 107.648-26.048s58.176-41.92 75.456-73.344c3.072-5.568 5.696-11.584 8.192-17.856L4216.32 778.24C4213.44 781.824 4210.304 785.216 4206.976 788.352z" p-id="3058" fill="#d81e06"></path></svg>